<?xml version="1.0" encoding="utf-8"?>
<!-- Generator: Adobe Illustrator 27.2.0, SVG Export Plug-In . SVG Version: 6.00 Build 0)  -->
<svg version="1.1" id="Layer_1" xmlns="http://www.w3.org/2000/svg" xmlns:xlink="http://www.w3.org/1999/xlink" x="0px" y="0px"
	 viewBox="0 0 518.7 514.3" style="enable-background:new 0 0 518.7 514.3;" xml:space="preserve">
<style type="text/css">
	.st0{fill:url(#SVGID_1_);}
	.st1{fill:url(#SVGID_00000119119219793144095060000004980996022958717316_);}
	.st2{fill:url(#SVGID_00000026857461734049491620000000043646974129182596_);}
	.st3{fill:url(#SVGID_00000181045434636238972210000002935495397444579519_);}
	.st4{fill:url(#SVGID_00000180325005561842152470000003932912215542486690_);}
</style>
<linearGradient id="SVGID_1_" gradientUnits="userSpaceOnUse" x1="-19.8859" y1="415.4309" x2="935.6486" y2="415.4309">
	<stop  offset="0.1024" style="stop-color:#EE5A29"/>
	<stop  offset="0.4669" style="stop-color:#F58A3E"/>
	<stop  offset="0.7002" style="stop-color:#F6BC38"/>
	<stop  offset="0.89" style="stop-color:#F7DE33"/>
	<stop  offset="0.9927" style="stop-color:#F7EB33"/>
</linearGradient>
<path class="st0" d="M500.2,316.6c-10.1,0-18.3,8.2-18.3,18.3v130.9c0,6.6-5.4,12-12,12H345.9c-10.1,0-18.3,8.2-18.3,18.3
	c0,10.1,8.2,18.3,18.3,18.3h123.9c26.8,0,48.6-21.8,48.6-48.6V334.9C518.5,324.8,510.3,316.6,500.2,316.6z"/>
<linearGradient id="SVGID_00000096032912654590203950000012690952203593262526_" gradientUnits="userSpaceOnUse" x1="-20.8859" y1="94.7768" x2="934.6486" y2="94.7768">
	<stop  offset="0.1024" style="stop-color:#EE5A29"/>
	<stop  offset="0.4669" style="stop-color:#F58A3E"/>
	<stop  offset="0.7002" style="stop-color:#F6BC38"/>
	<stop  offset="0.89" style="stop-color:#F7DE33"/>
	<stop  offset="0.9927" style="stop-color:#F7EB33"/>
</linearGradient>
<path style="fill:url(#SVGID_00000096032912654590203950000012690952203593262526_);" d="M471,1H342.4c-9.9,0-18,8-18,18s8,18,18,18
	H471c6.5,0,11.8,5.3,11.8,11.8v121.8c0,9.9,8,18,18,18c9.9,0,18-8,18-18V48.8C518.7,22.4,497.3,1,471,1z"/>
<linearGradient id="SVGID_00000011012191602090373020000013688932401739848336_" gradientUnits="userSpaceOnUse" x1="-19.8859" y1="99.8977" x2="935.6486" y2="99.8977">
	<stop  offset="0.1024" style="stop-color:#EE5A29"/>
	<stop  offset="0.4669" style="stop-color:#F58A3E"/>
	<stop  offset="0.7002" style="stop-color:#F6BC38"/>
	<stop  offset="0.89" style="stop-color:#F7DE33"/>
	<stop  offset="0.9927" style="stop-color:#F7EB33"/>
</linearGradient>
<path style="fill:url(#SVGID_00000011012191602090373020000013688932401739848336_);" d="M19.3,198.8c10.1,0,18.3-8.2,18.3-18.3
	V49.6c0-6.6,5.4-12,12-12h123.9c10.1,0,18.3-8.2,18.3-18.3S183.7,1,173.5,1H49.6C22.8,1,1,22.8,1,49.6v130.9
	C1,190.6,9.2,198.8,19.3,198.8z"/>
<linearGradient id="SVGID_00000127733033132220279260000007891952902914128262_" gradientUnits="userSpaceOnUse" x1="-19.8859" y1="420.5517" x2="935.6486" y2="420.5517">
	<stop  offset="0.1024" style="stop-color:#EE5A29"/>
	<stop  offset="0.4669" style="stop-color:#F58A3E"/>
	<stop  offset="0.7002" style="stop-color:#F6BC38"/>
	<stop  offset="0.89" style="stop-color:#F7DE33"/>
	<stop  offset="0.9927" style="stop-color:#F7EB33"/>
</linearGradient>
<path style="fill:url(#SVGID_00000127733033132220279260000007891952902914128262_);" d="M176.1,478.3H47.5
	c-6.5,0-11.8-5.3-11.8-11.8V344.8c0-9.9-8-18-18-18c-9.9,0-18,8-18,18v121.8c0,26.3,21.4,47.7,47.7,47.7h128.6c9.9,0,18-8,18-18
	C194,486.4,186,478.3,176.1,478.3z"/>
<linearGradient id="SVGID_00000065756931678027346940000004252326581505730465_" gradientUnits="userSpaceOnUse" x1="-58.7278" y1="246.8291" x2="694.5635" y2="246.8291">
	<stop  offset="0.1024" style="stop-color:#EE5A29"/>
	<stop  offset="0.4669" style="stop-color:#F58A3E"/>
	<stop  offset="0.7002" style="stop-color:#F6BC38"/>
	<stop  offset="0.89" style="stop-color:#F7DE33"/>
	<stop  offset="0.9927" style="stop-color:#F7EB33"/>
</linearGradient>
<path style="fill:url(#SVGID_00000065756931678027346940000004252326581505730465_);" d="M404.3,146.9c-0.9-1.4-1.9-1.9-2.9-1.8
	v-1.1h-24.7v2.6v1.1c-1-0.1-2,0.5-2.9,1.8c-15.1,23-32.5,42.5-51.6,56.2h-0.1v0.1c-11.4,8.2-23.4,14.3-36,17.9
	c-31.2,9-63.7,1.1-92.1-20.7c-17.8-13.6-33.7-32-47.8-53.5c-0.9-1.4-1.9-1.9-2.9-1.8v-1.1h-24.7v0.1h-1.4v1.1c-1-0.1-2,0.5-2.9,1.8
	c-14.1,21.5-30,39.9-47.8,53.5c-20.9,16-42.8,24.5-66,24.3c0,4.1,0,8.2,0,12.3c9.6,0.2,18.1-1.1,27.7-3.8c2.1-0.6,4.1-1.2,6.2-2
	v50.6H0.6v25h116.6v40.2H142v-0.1h1.4v-40.2h233.3V347v2.6h24.7V347v-40.2h116.6v-25h-33.8v-50.6c2,0.7,4.1,1.4,6.2,2
	c9.6,2.7,18,4,27.7,3.8c0-4.1,0-8.3,0-12.3c-23.2,0.2-45.1-8.3-66-24.3C434.3,186.8,418.4,168.3,404.3,146.9z M62.7,284.6H38.2
	v-51.9c8.4-3.3,16.6-7.7,24.5-13V284.6z M90.9,284.6H66.4V217c8.5-6.1,16.7-13.3,24.5-21.5V284.6z M117.3,284.6H94.7v-93
	c8-8.7,15.5-18.4,22.6-28.8V284.6z M166,284.5h-22.6V162.6c7.1,10.4,14.6,20.1,22.6,28.8V284.5z M194.2,284.5h-24.5v-89
	c7.8,8.1,16,15.3,24.5,21.5V284.5z M222.5,284.5H198v-65c7.9,5.3,16.1,9.7,24.5,13V284.5z M258.2,284.5h-32v-50.6
	c2,0.7,4.1,1.4,6.2,2c8.6,2.4,17.2,3.7,25.8,3.8V284.5z M293.9,284.5h-32v-44.8c10.8-0.3,21.5-2.2,32-5.9V284.5z M322.1,284.5h-24.5
	v-52.1c8.3-3.2,16.5-7.5,24.5-12.8V284.5z M350.3,284.5h-24.5V217c1.3-0.9,2.5-1.8,3.8-2.7c7.2-5.5,14.1-11.7,20.7-18.6V284.5z
	 M376.7,284.5h-22.6v-92.9c8-8.8,15.5-18.5,22.6-28.9V284.5z M424,281.9h-22.6V160c7.1,10.4,14.6,20.1,22.6,28.8V281.9z M456,216.9
	c7.9,5.3,16.1,9.7,24.5,13v51.9H456V216.9z M452.3,281.9h-24.5v-89c7.8,8.1,16,15.3,24.5,21.5V281.9z"/>
</svg>
