<?xml version="1.0" encoding="utf-8"?>
<!-- Generator: Adobe Illustrator 27.2.0, SVG Export Plug-In . SVG Version: 6.00 Build 0)  -->
<svg version="1.1" id="Layer_1" xmlns="http://www.w3.org/2000/svg" xmlns:xlink="http://www.w3.org/1999/xlink" x="0px" y="0px"
	 viewBox="0 0 518.7 514.3" style="enable-background:new 0 0 518.7 514.3;" xml:space="preserve">
<style type="text/css">
	.st0{fill:url(#SVGID_1_);}
	.st1{fill:url(#SVGID_00000096040351572955729150000014744550518609666233_);}
	.st2{fill:url(#SVGID_00000125562504727832042910000005003299952017478572_);}
	.st3{fill:url(#SVGID_00000035491344950492992220000008307711228306395053_);}
</style>
<linearGradient id="SVGID_1_" gradientUnits="userSpaceOnUse" x1="-20.8859" y1="94.7768" x2="934.6486" y2="94.7768">
	<stop  offset="0.1024" style="stop-color:#EE5A29"/>
	<stop  offset="0.4669" style="stop-color:#F58A3E"/>
	<stop  offset="0.7002" style="stop-color:#F6BC38"/>
	<stop  offset="0.89" style="stop-color:#F7DE33"/>
	<stop  offset="0.9927" style="stop-color:#F7EB33"/>
</linearGradient>
<path class="st0" d="M471,1H342.4c-9.9,0-18,8-18,18s8,18,18,18H471c6.5,0,11.8,5.3,11.8,11.8v121.8c0,9.9,8,18,18,18
	c9.9,0,18-8,18-18V48.8C518.7,22.4,497.3,1,471,1z"/>
<linearGradient id="SVGID_00000051359433265905274840000009515550379127390094_" gradientUnits="userSpaceOnUse" x1="-19.8859" y1="420.5517" x2="935.6486" y2="420.5517">
	<stop  offset="0.1024" style="stop-color:#EE5A29"/>
	<stop  offset="0.4669" style="stop-color:#F58A3E"/>
	<stop  offset="0.7002" style="stop-color:#F6BC38"/>
	<stop  offset="0.89" style="stop-color:#F7DE33"/>
	<stop  offset="0.9927" style="stop-color:#F7EB33"/>
</linearGradient>
<path style="fill:url(#SVGID_00000051359433265905274840000009515550379127390094_);" d="M176.1,478.3H47.5
	c-6.5,0-11.8-5.3-11.8-11.8V344.8c0-9.9-8-18-18-18c-9.9,0-18,8-18,18v121.8c0,26.3,21.4,47.7,47.7,47.7h128.6c9.9,0,18-8,18-18
	C194,486.4,186,478.3,176.1,478.3z"/>
<g>
	
		<linearGradient id="SVGID_00000096017453604857433390000010631150684872810424_" gradientUnits="userSpaceOnUse" x1="-105.9591" y1="134.5134" x2="774.4269" y2="134.5134">
		<stop  offset="0.1024" style="stop-color:#EE5A29"/>
		<stop  offset="0.4669" style="stop-color:#F58A3E"/>
		<stop  offset="0.7002" style="stop-color:#F6BC38"/>
		<stop  offset="0.89" style="stop-color:#F7DE33"/>
		<stop  offset="0.9927" style="stop-color:#F7EB33"/>
	</linearGradient>
	<path style="fill:url(#SVGID_00000096017453604857433390000010631150684872810424_);" d="M13.4,193.3c8.8,9.3,20.5,14.4,32.8,14.4
		h297l-25.9,27.5h0c-7.1,7.5-7.1,19.7,0,27.2c3.4,3.6,8,5.6,12.8,5.6c4.8,0,9.4-2,12.8-5.6l56.8-60.3l1.2-1.3l0.1-0.3l0.2-0.3
		l0.1-0.2l0.3-0.3l0.5-0.8l0-0.1l0.3-0.4l0.1-0.2l0.6-1.2l0.5-0.7l0.1-0.7l0.9-2.8l0.4-3v-2.9l-0.4-2.9l-0.1-0.2l-0.1-0.4l-0.6-1.9
		l-0.1-0.3l-0.2-0.9l-0.4-0.6l-0.6-1.3l-0.1-0.2l-0.3-0.4l-0.1-0.3l-0.2-0.3l-0.1-0.2l-0.7-0.9l-0.1-0.2l-1.1-1.3l-56.9-60.3
		c-3.4-3.6-8-5.6-12.8-5.6c-4.8,0-9.4,2-12.8,5.6c-3.4,3.6-5.3,8.4-5.3,13.6c0,5.2,1.9,10,5.3,13.6l25.9,27.4h-297
		c-2.7,0-5.3-1.1-7.3-3.2c-1.8-2-2.9-4.6-3-7.4c0.2-1.1,0.3-2.3,0.3-3.5V49.6c0-6.6,5.4-12,12-12h123.9c10.1,0,18.3-8.2,18.3-18.3
		S182.3,1,172.2,1h-66.5H48.3h-2.1c-12.4,0-24,5.1-32.9,14.4C9.1,20,5.8,25.2,3.5,30.8C1,36.6-0.3,43-0.3,49.6v0.8v104.8v3.2
		c0,13,4.8,25.3,13.4,34.6L13.4,193.3z"/>
	
		<linearGradient id="SVGID_00000073693969611781625470000013461164819960568966_" gradientUnits="userSpaceOnUse" x1="-105.9591" y1="380.8151" x2="774.4269" y2="380.8151">
		<stop  offset="0.1024" style="stop-color:#EE5A29"/>
		<stop  offset="0.4669" style="stop-color:#F58A3E"/>
		<stop  offset="0.7002" style="stop-color:#F6BC38"/>
		<stop  offset="0.89" style="stop-color:#F7DE33"/>
		<stop  offset="0.9927" style="stop-color:#F7EB33"/>
	</linearGradient>
	<path style="fill:url(#SVGID_00000073693969611781625470000013461164819960568966_);" d="M505.6,322.3l-0.3-0.3
		c-8.8-9.3-20.5-14.5-32.8-14.5h-297l25.9-27.5h0c7.1-7.5,7.1-19.7,0-27.2c-3.4-3.6-8-5.6-12.8-5.6c-4.8,0-9.4,2-12.8,5.6L119,313.2
		l-1.2,1.3l-0.1,0.3l-0.2,0.3l-0.1,0.2l-0.3,0.3l-0.5,0.8l0,0.1l-0.3,0.4l-0.1,0.2l-0.6,1.2l-0.5,0.7l-0.1,0.7l-0.9,2.8l-0.4,3v2.9
		l0.4,2.9l0.1,0.2l0.1,0.4l0.6,1.9l0.1,0.3l0.2,0.9l0.4,0.6l0.6,1.3l0.1,0.2l0.3,0.4l0.1,0.3l0.2,0.3l0.1,0.2l0.7,0.9l0.1,0.2
		l1.1,1.3l56.9,60.3c3.4,3.6,8,5.6,12.8,5.6c4.8,0,9.4-2,12.8-5.6c3.4-3.6,5.3-8.4,5.3-13.6c0-5.2-1.9-10-5.3-13.6L175.6,346h297
		c2.7,0,5.3,1.1,7.3,3.2c1.8,2,2.9,4.6,3,7.4c-0.2,1.1-0.3,2.3-0.3,3.5v105.5c0,6.6-5.4,12-12,12H346.5c-10.1,0-18.3,8.2-18.3,18.3
		s8.2,18.3,18.3,18.3H413h57.4h2.1c12.4,0,24-5.1,32.9-14.4c4.2-4.5,7.5-9.7,9.8-15.4c2.4-5.8,3.8-12.1,3.8-18.8V465V360.2v-3.2
		C519,343.9,514.3,331.6,505.6,322.3z"/>
</g>
</svg>
