<?xml version="1.0" encoding="utf-8"?>
<!-- Generator: Adobe Illustrator 27.2.0, SVG Export Plug-In . SVG Version: 6.00 Build 0)  -->
<svg version="1.1" id="Layer_1" xmlns="http://www.w3.org/2000/svg" xmlns:xlink="http://www.w3.org/1999/xlink" x="0px" y="0px"
	 viewBox="0 0 518.7 514.3" style="enable-background:new 0 0 518.7 514.3;" xml:space="preserve">
<style type="text/css">
	.st0{fill:url(#SVGID_1_);}
	.st1{fill:url(#SVGID_00000078730821583804833400000009138932125579538102_);}
	.st2{fill:url(#SVGID_00000109726308229130258920000004299023305546870667_);}
	.st3{fill:url(#SVGID_00000034772212262429077530000009186555913306926762_);}
	.st4{fill:url(#SVGID_00000094611641958728757520000002755676231022141880_);}
	.st5{fill:url(#SVGID_00000090254005949689106600000005401484982807376805_);}
	.st6{fill:url(#SVGID_00000159468041975717325860000009703113585851410831_);}
</style>
<linearGradient id="SVGID_1_" gradientUnits="userSpaceOnUse" x1="-19.8859" y1="415.4309" x2="935.6486" y2="415.4309">
	<stop  offset="0.1024" style="stop-color:#EE5A29"/>
	<stop  offset="0.4669" style="stop-color:#F58A3E"/>
	<stop  offset="0.7002" style="stop-color:#F6BC38"/>
	<stop  offset="0.89" style="stop-color:#F7DE33"/>
	<stop  offset="0.9927" style="stop-color:#F7EB33"/>
</linearGradient>
<path class="st0" d="M500.2,316.6c-10.1,0-18.3,8.2-18.3,18.3v130.9c0,6.6-5.4,12-12,12H345.9c-10.1,0-18.3,8.2-18.3,18.3
	c0,10.1,8.2,18.3,18.3,18.3h123.9c26.8,0,48.6-21.8,48.6-48.6V334.9C518.5,324.8,510.3,316.6,500.2,316.6z"/>
<linearGradient id="SVGID_00000146477781374941396580000005929851186847657903_" gradientUnits="userSpaceOnUse" x1="-20.8859" y1="94.7768" x2="934.6486" y2="94.7768">
	<stop  offset="0.1024" style="stop-color:#EE5A29"/>
	<stop  offset="0.4669" style="stop-color:#F58A3E"/>
	<stop  offset="0.7002" style="stop-color:#F6BC38"/>
	<stop  offset="0.89" style="stop-color:#F7DE33"/>
	<stop  offset="0.9927" style="stop-color:#F7EB33"/>
</linearGradient>
<path style="fill:url(#SVGID_00000146477781374941396580000005929851186847657903_);" d="M471,1H342.4c-9.9,0-18,8-18,18s8,18,18,18
	H471c6.5,0,11.8,5.3,11.8,11.8v121.8c0,9.9,8,18,18,18c9.9,0,18-8,18-18V48.8C518.7,22.4,497.3,1,471,1z"/>
<linearGradient id="SVGID_00000160890304157259549260000003486188834849048199_" gradientUnits="userSpaceOnUse" x1="-19.8859" y1="99.8977" x2="935.6486" y2="99.8977">
	<stop  offset="0.1024" style="stop-color:#EE5A29"/>
	<stop  offset="0.4669" style="stop-color:#F58A3E"/>
	<stop  offset="0.7002" style="stop-color:#F6BC38"/>
	<stop  offset="0.89" style="stop-color:#F7DE33"/>
	<stop  offset="0.9927" style="stop-color:#F7EB33"/>
</linearGradient>
<path style="fill:url(#SVGID_00000160890304157259549260000003486188834849048199_);" d="M19.3,198.8c10.1,0,18.3-8.2,18.3-18.3
	V49.6c0-6.6,5.4-12,12-12h123.9c10.1,0,18.3-8.2,18.3-18.3S183.7,1,173.5,1H49.6C22.8,1,1,22.8,1,49.6v130.9
	C1,190.6,9.2,198.8,19.3,198.8z"/>
<linearGradient id="SVGID_00000081630845106760142310000010371736186848692137_" gradientUnits="userSpaceOnUse" x1="-19.8859" y1="420.5517" x2="935.6486" y2="420.5517">
	<stop  offset="0.1024" style="stop-color:#EE5A29"/>
	<stop  offset="0.4669" style="stop-color:#F58A3E"/>
	<stop  offset="0.7002" style="stop-color:#F6BC38"/>
	<stop  offset="0.89" style="stop-color:#F7DE33"/>
	<stop  offset="0.9927" style="stop-color:#F7EB33"/>
</linearGradient>
<path style="fill:url(#SVGID_00000081630845106760142310000010371736186848692137_);" d="M176.1,478.3H47.5
	c-6.5,0-11.8-5.3-11.8-11.8V344.8c0-9.9-8-18-18-18c-9.9,0-18,8-18,18v121.8c0,26.3,21.4,47.7,47.7,47.7h128.6c9.9,0,18-8,18-18
	C194,486.4,186,478.3,176.1,478.3z"/>
<linearGradient id="SVGID_00000063600596245524284800000017614271975194860971_" gradientUnits="userSpaceOnUse" x1="-83.4699" y1="181.3366" x2="765.3195" y2="181.3366">
	<stop  offset="0.1024" style="stop-color:#EE5A29"/>
	<stop  offset="0.4669" style="stop-color:#F58A3E"/>
	<stop  offset="0.7002" style="stop-color:#F6BC38"/>
	<stop  offset="0.89" style="stop-color:#F7DE33"/>
	<stop  offset="0.9927" style="stop-color:#F7EB33"/>
</linearGradient>
<path style="fill:url(#SVGID_00000063600596245524284800000017614271975194860971_);" d="M130.3,164.6c-9.3,0-16.8,7.5-16.8,16.8
	l0,0c0,9.3,7.5,16.8,16.8,16.8H392c9.3,0,16.8-7.5,16.8-16.8l0,0c0-9.3-7.5-16.8-16.8-16.8H130.3z"/>
<linearGradient id="SVGID_00000181070188754184800330000013198116610360866197_" gradientUnits="userSpaceOnUse" x1="-83.4699" y1="348.1609" x2="765.3195" y2="348.1609">
	<stop  offset="0.1024" style="stop-color:#EE5A29"/>
	<stop  offset="0.4669" style="stop-color:#F58A3E"/>
	<stop  offset="0.7002" style="stop-color:#F6BC38"/>
	<stop  offset="0.89" style="stop-color:#F7DE33"/>
	<stop  offset="0.9927" style="stop-color:#F7EB33"/>
</linearGradient>
<path style="fill:url(#SVGID_00000181070188754184800330000013198116610360866197_);" d="M392,364.9c9.3,0,16.8-7.5,16.8-16.8l0,0
	c0-9.3-7.5-16.8-16.8-16.8H130.3c-9.3,0-16.8,7.5-16.8,16.8l0,0c0,9.3,7.5,16.8,16.8,16.8H392z"/>
<linearGradient id="SVGID_00000034072874877834786770000003849381305321574821_" gradientUnits="userSpaceOnUse" x1="-83.4699" y1="264.7488" x2="765.3195" y2="264.7488">
	<stop  offset="0.1024" style="stop-color:#EE5A29"/>
	<stop  offset="0.4669" style="stop-color:#F58A3E"/>
	<stop  offset="0.7002" style="stop-color:#F6BC38"/>
	<stop  offset="0.89" style="stop-color:#F7DE33"/>
	<stop  offset="0.9927" style="stop-color:#F7EB33"/>
</linearGradient>
<path style="fill:url(#SVGID_00000034072874877834786770000003849381305321574821_);" d="M501.7,248H17c-9.3,0-16.8,7.5-16.8,16.8v0
	c0,9.3,7.5,16.8,16.8,16.8h484.7c9.3,0,16.8-7.5,16.8-16.8v0C518.5,255.5,511,248,501.7,248z"/>
</svg>
