<?xml version="1.0" encoding="utf-8"?>
<!-- Generator: Adobe Illustrator 27.2.0, SVG Export Plug-In . SVG Version: 6.00 Build 0)  -->
<svg version="1.1" id="Layer_1" xmlns="http://www.w3.org/2000/svg" xmlns:xlink="http://www.w3.org/1999/xlink" x="0px" y="0px"
	 viewBox="0 0 273.6 58.2" style="enable-background:new 0 0 273.6 58.2;" xml:space="preserve">
<style type="text/css">
	.st0{fill:#FFFFFF;}
	.st1{fill:url(#SVGID_1_);}
	.st2{fill:url(#SVGID_00000087408138658889068520000003787601103303459485_);}
	.st3{fill:url(#SVGID_00000056409978642728907130000002201159262781521299_);}
	.st4{fill:url(#SVGID_00000170990096710035679270000002548080562137896111_);}
</style>
<g>
	<g>
		<path class="st0" d="M144.6,32c0,7-4.8,10.4-14.4,10.4c-11.1,0-15.9-3.5-15.9-10.4V19h7.1v13c0,3.4,1.4,4.5,8.8,4.5
			c5.5,0,7.2-1.3,7.2-4.5V19h7.2V32z"/>
		<polygon class="st0" points="172.7,36.2 173,42.1 148.5,42.1 148.5,19 155.6,19 155.6,36.2 		"/>
		<path class="st0" d="M202.9,36.2h-14.7c-3.9,0-6.8-2.2-6.8-5.5s2.9-5.6,6.8-5.6h14.7v-6h-14.7c-8,0-13.9,4.5-13.9,11.3
			c0,6.7,5.9,11.7,13.9,11.7h14.7V36.2z"/>
		<polygon class="st0" points="93.8,43.7 94,43.3 94,43.3 111.2,19 103.6,19 93.9,31.7 84.5,19 76.6,19 		"/>
		<polygon class="st0" points="223.6,17.8 223.4,18.2 223.4,18.2 206.2,42.5 213.8,42.5 223.5,29.8 232.9,42.5 240.8,42.5 		"/>
		<path class="st0" d="M264,19v13.5l-14.1-12.7c-0.8-0.7-1.4-1-2-1.2l0,0h-0.2c-0.2,0-0.4,0-0.6,0c-0.2,0-3.9,0-3.9,0v23.8h6.5V28.5
			l14,12.7c1.1,1,2,1.2,2.9,1.2h3.9v-4.3V19H264z"/>
	</g>
</g>
<g>
	<g>
		
			<linearGradient id="SVGID_1_" gradientUnits="userSpaceOnUse" x1="30" y1="35.6156" x2="30" y2="-8.6873" gradientTransform="matrix(1 0 0 -1 0 56.496)">
			<stop  offset="0.1024" style="stop-color:#F15A29"/>
			<stop  offset="0.4669" style="stop-color:#F78C3D"/>
			<stop  offset="0.7002" style="stop-color:#F8BE37"/>
			<stop  offset="0.89" style="stop-color:#F9E033"/>
			<stop  offset="0.9927" style="stop-color:#F9ED32"/>
		</linearGradient>
		<polygon class="st1" points="36.2,21.3 23.8,33.6 36.2,51.6 		"/>
		
			<linearGradient id="SVGID_00000057123137435147541660000011251043446511345800_" gradientUnits="userSpaceOnUse" x1="8.821" y1="59.7092" x2="41.483" y2="12.3603" gradientTransform="matrix(1 0 0 -1 0 56.496)">
			<stop  offset="0.1024" style="stop-color:#F15A29"/>
			<stop  offset="0.4669" style="stop-color:#F78C3D"/>
			<stop  offset="0.7002" style="stop-color:#F8BE37"/>
			<stop  offset="0.89" style="stop-color:#F9E033"/>
			<stop  offset="0.9927" style="stop-color:#F9ED32"/>
		</linearGradient>
		<polygon style="fill:url(#SVGID_00000057123137435147541660000011251043446511345800_);" points="36.2,21.3 4.5,5.6 23.8,33.6 		
			"/>
	</g>
	<g>
		
			<linearGradient id="SVGID_00000098903734226435923200000003219383706228387508_" gradientUnits="userSpaceOnUse" x1="42.35" y1="4.5977" x2="42.35" y2="48.7877" gradientTransform="matrix(1 0 0 -1 0 56.496)">
			<stop  offset="0.1024" style="stop-color:#F15A29"/>
			<stop  offset="0.4669" style="stop-color:#F78C3D"/>
			<stop  offset="0.7034" style="stop-color:#F8BE37"/>
			<stop  offset="0.8958" style="stop-color:#F9E033"/>
			<stop  offset="1" style="stop-color:#F9ED32"/>
		</linearGradient>
		<polygon style="fill:url(#SVGID_00000098903734226435923200000003219383706228387508_);" points="36.2,21.3 48.5,33.6 36.2,51.6 
					"/>
		
			<linearGradient id="SVGID_00000033368773665005415900000011810859648606668430_" gradientUnits="userSpaceOnUse" x1="63.914" y1="60.1628" x2="31.1424" y2="12.8139" gradientTransform="matrix(1 0 0 -1 0 56.496)">
			<stop  offset="0.1024" style="stop-color:#F15A29"/>
			<stop  offset="0.4669" style="stop-color:#F78C3D"/>
			<stop  offset="0.7002" style="stop-color:#F8BE37"/>
			<stop  offset="0.89" style="stop-color:#F9E033"/>
			<stop  offset="0.9927" style="stop-color:#F9ED32"/>
		</linearGradient>
		<polygon style="fill:url(#SVGID_00000033368773665005415900000011810859648606668430_);" points="36.2,21.3 67.8,5.6 48.5,33.6 		
			"/>
	</g>
</g>
</svg>
